# xmcd
#
# Track frame offsets:
#	150
#	24076
#	45218
#	62662
#	74488
#	103894
#	122263
#	133461
#	148297
#	161010
#	183616
#	206197
#	225769
#	241882
#
# Disc length: 3704
#
# Revision: 1
# Processed by: cddbd v1.5.1PL0 Copyright (c) Steve Scherf et al.
# Submitted via: audiograbber 1.81.02
# Normalized: r0:DSETVAR1
#
DISCID=c50e760e
DTITLE=Various Artist - blues
DYEAR=1900
DGENRE=Blues
TTITLE0=Allman brothers band - Whipping post
TTITLE1=Steve Ray Vaughan - Couldn't stand the weather
TTITLE2=ZZ top - La grange
TTITLE3=Johnny Winter - Bony Moronie
TTITLE4=Eric Gales Band - Draw the line
TTITLE5=King's X - Fall on me
TTITLE6=Blues Image - Love is the answer
TTITLE7=Drivin' 'n' Cryin' - Eastern european carny man
TTITLE8=Black Oak Arkansas - Sting me
TTITLE9=Mother Station - Fool for a pretty face
TTITLE10=Savatage - You're alive/Sammy and Tex
TTITLE11=Mother's Finest - Movin' on
TTITLE12=Blackfoot - Good morning
TTITLE13=Molly Hatchet - Fall of the peacemakers
EXTD=
EXTT0=
EXTT1=
EXTT2=
EXTT3=
EXTT4=
EXTT5=
EXTT6=
EXTT7=
EXTT8=
EXTT9=
EXTT10=
EXTT11=
EXTT12=
EXTT13=
PLAYORDER=
